<mxfile host="app.diagrams.net" modified="2023-12-14T16:14:33.225Z" agent="Mozilla/5.0 (Macintosh; Intel Mac OS X 10_15_7) AppleWebKit/537.36 (KHTML, like Gecko) Chrome/119.0.0.0 Safari/537.36" version="22.1.9" etag="Pko3-wmBrOZESxGtBqhJ" type="github">
  <diagram name="第 1 页" id="67K8c02Mb7CR_brThZ4o">
    <mxGraphModel>
      <root>
        <mxCell id="0" />
        <mxCell id="1" parent="0" />
      </root>
    </mxGraphModel>
  </diagram>
</mxfile>
